<mxfile host="app.diagrams.net" agent="Mozilla/5.0 (Windows NT 10.0; Win64; x64) AppleWebKit/537.36 (KHTML, like Gecko) Chrome/131.0.0.0 Safari/537.36 Edg/131.0.0.0" version="25.0.3">
  <diagram name="Página-1" id="IrMw7uZTe7nr96-w8tra">
    <mxGraphModel dx="1315" dy="607" grid="1" gridSize="10" guides="1" tooltips="1" connect="1" arrows="1" fold="1" page="1" pageScale="1" pageWidth="827" pageHeight="1169" math="0" shadow="0">
      <root>
        <mxCell id="0" />
        <mxCell id="1" parent="0" />
        <mxCell id="-qfgoMaYPnIPkvlFiLvf-1" value="FIM" style="strokeWidth=2;html=1;shape=mxgraph.flowchart.start_1;whiteSpace=wrap;" vertex="1" parent="1">
          <mxGeometry x="340" y="410" width="100" height="60" as="geometry" />
        </mxCell>
        <mxCell id="-qfgoMaYPnIPkvlFiLvf-6" style="edgeStyle=orthogonalEdgeStyle;rounded=0;orthogonalLoop=1;jettySize=auto;html=1;exitX=0.5;exitY=1;exitDx=0;exitDy=0;exitPerimeter=0;" edge="1" parent="1" source="-qfgoMaYPnIPkvlFiLvf-2" target="-qfgoMaYPnIPkvlFiLvf-3">
          <mxGeometry relative="1" as="geometry" />
        </mxCell>
        <mxCell id="-qfgoMaYPnIPkvlFiLvf-2" value="INÍCIO&amp;nbsp;" style="strokeWidth=2;html=1;shape=mxgraph.flowchart.start_1;whiteSpace=wrap;" vertex="1" parent="1">
          <mxGeometry x="340" y="10" width="100" height="60" as="geometry" />
        </mxCell>
        <mxCell id="-qfgoMaYPnIPkvlFiLvf-3" value="NOME" style="html=1;strokeWidth=2;shape=manualInput;whiteSpace=wrap;rounded=1;size=26;arcSize=11;" vertex="1" parent="1">
          <mxGeometry x="340" y="90" width="100" height="60" as="geometry" />
        </mxCell>
        <mxCell id="-qfgoMaYPnIPkvlFiLvf-8" style="edgeStyle=orthogonalEdgeStyle;rounded=0;orthogonalLoop=1;jettySize=auto;html=1;exitX=0.5;exitY=1;exitDx=0;exitDy=0;" edge="1" parent="1" source="-qfgoMaYPnIPkvlFiLvf-4" target="-qfgoMaYPnIPkvlFiLvf-5">
          <mxGeometry relative="1" as="geometry" />
        </mxCell>
        <mxCell id="-qfgoMaYPnIPkvlFiLvf-4" value="SOBRENOME" style="html=1;strokeWidth=2;shape=manualInput;whiteSpace=wrap;rounded=1;size=26;arcSize=11;" vertex="1" parent="1">
          <mxGeometry x="340" y="170" width="100" height="60" as="geometry" />
        </mxCell>
        <mxCell id="-qfgoMaYPnIPkvlFiLvf-9" style="edgeStyle=orthogonalEdgeStyle;rounded=0;orthogonalLoop=1;jettySize=auto;html=1;exitX=0.5;exitY=1;exitDx=0;exitDy=0;exitPerimeter=0;" edge="1" parent="1" source="-qfgoMaYPnIPkvlFiLvf-5" target="-qfgoMaYPnIPkvlFiLvf-1">
          <mxGeometry relative="1" as="geometry" />
        </mxCell>
        <mxCell id="-qfgoMaYPnIPkvlFiLvf-5" value="NOME E SOBRENOME" style="strokeWidth=2;html=1;shape=mxgraph.flowchart.display;whiteSpace=wrap;" vertex="1" parent="1">
          <mxGeometry x="340" y="280" width="100" height="60" as="geometry" />
        </mxCell>
        <mxCell id="-qfgoMaYPnIPkvlFiLvf-7" style="edgeStyle=orthogonalEdgeStyle;rounded=0;orthogonalLoop=1;jettySize=auto;html=1;exitX=0.5;exitY=1;exitDx=0;exitDy=0;entryX=0.517;entryY=0.272;entryDx=0;entryDy=0;entryPerimeter=0;" edge="1" parent="1" source="-qfgoMaYPnIPkvlFiLvf-3" target="-qfgoMaYPnIPkvlFiLvf-4">
          <mxGeometry relative="1" as="geometry" />
        </mxCell>
      </root>
    </mxGraphModel>
  </diagram>
</mxfile>
